<?xml version="1.0" encoding="utf-8" standalone="no"?>
<!DOCTYPE svg PUBLIC "-//W3C//DTD SVG 1.1//EN"
  "http://www.w3.org/Graphics/SVG/1.1/DTD/svg11.dtd">
<svg xmlns:xlink="http://www.w3.org/1999/xlink" width="1382.4pt" height="727.2pt" viewBox="0 0 1382.4 727.2" xmlns="http://www.w3.org/2000/svg" version="1.1">
 <metadata>
  <rdf:RDF xmlns:dc="http://purl.org/dc/elements/1.1/" xmlns:cc="http://creativecommons.org/ns#" xmlns:rdf="http://www.w3.org/1999/02/22-rdf-syntax-ns#">
   <cc:Work>
    <dc:type rdf:resource="http://purl.org/dc/dcmitype/StillImage"/>
    <dc:date>2025-05-04T19:45:17.239530</dc:date>
    <dc:format>image/svg+xml</dc:format>
    <dc:creator>
     <cc:Agent>
      <dc:title>Matplotlib v3.7.5, https://matplotlib.org/</dc:title>
     </cc:Agent>
    </dc:creator>
   </cc:Work>
  </rdf:RDF>
 </metadata>
 <defs>
  <style type="text/css">*{stroke-linejoin: round; stroke-linecap: butt}</style>
 </defs>
 <g id="figure_1">
  <g id="patch_1">
   <path d="M 0 727.2 
L 1382.4 727.2 
L 1382.4 0 
L 0 0 
z
" style="fill: #ffffff"/>
  </g>
  <g id="axes_1">
   <g id="patch_2">
    <path d="M 114.528 656.567333 
L 1338.953777 656.567333 
L 1338.953777 45.248 
L 114.528 45.248 
z
" style="fill: #ffffff"/>
   </g>
   <g id="patch_3">
    <path d="M 369.673152 182.76276 
L 355.576613 182.265445 
L 358.534482 176.837076 
L 336.377872 164.764141 
L 336.498602 164.542575 
L 358.655212 176.61551 
L 361.613081 171.18714 
z
" clip-path="url(#pac53f07a7b)" style="fill: #0000ff; opacity: 0.6; stroke: #0000ff; stroke-linejoin: miter"/>
   </g>
   <g id="patch_4">
    <path d="M 480.712783 241.642043 
L 466.876399 238.900842 
L 470.662881 234.014254 
L 450.717626 218.559225 
L 450.872176 218.359773 
L 470.817431 233.814802 
L 474.603913 228.928214 
z
" clip-path="url(#pac53f07a7b)" style="fill: #0000ff; opacity: 0.6; stroke: #0000ff; stroke-linejoin: miter"/>
   </g>
   <g id="patch_5">
    <path d="M 589.700275 291.659956 
L 576.039573 288.146418 
L 580.094377 283.480076 
L 561.048085 266.929854 
L 561.213587 266.739391 
L 580.25988 283.289613 
L 584.314684 278.623272 
z
" clip-path="url(#pac53f07a7b)" style="fill: #0000ff; opacity: 0.6; stroke: #0000ff; stroke-linejoin: miter"/>
   </g>
   <g id="patch_6">
    <path d="M 633.545717 286.351776 
L 624.423644 297.110377 
L 621.994198 291.425839 
L 598.792 301.341943 
L 598.692839 301.109921 
L 621.895037 291.193817 
L 619.465592 285.509278 
z
" clip-path="url(#pac53f07a7b)" style="fill: #0000ff; opacity: 0.6; stroke: #0000ff; stroke-linejoin: miter"/>
   </g>
   <g id="patch_7">
    <path d="M 685.408989 256.216949 
L 677.477702 267.881186 
L 674.459853 262.485931 
L 652.438405 274.803679 
L 652.315227 274.583465 
L 674.336676 262.265716 
L 671.318828 256.870461 
z
" clip-path="url(#pac53f07a7b)" style="fill: #0000ff; opacity: 0.6; stroke: #0000ff; stroke-linejoin: miter"/>
   </g>
   <g id="patch_8">
    <path d="M 726.770896 226.902979 
L 719.944007 239.246127 
L 716.443563 234.15073 
L 695.646022 248.438256 
L 695.503147 248.230281 
L 716.300688 233.942754 
L 712.800244 228.847357 
z
" clip-path="url(#pac53f07a7b)" style="fill: #0000ff; opacity: 0.6; stroke: #0000ff; stroke-linejoin: miter"/>
   </g>
   <g id="patch_9">
    <path d="M 783.026361 189.781879 
L 775.714122 201.843839 
L 772.419032 196.613297 
L 751.069882 210.062642 
L 750.935388 209.849151 
L 772.284539 196.399806 
L 768.98945 191.169264 
z
" clip-path="url(#pac53f07a7b)" style="fill: #0000ff; opacity: 0.6; stroke: #0000ff; stroke-linejoin: miter"/>
   </g>
   <g id="patch_10">
    <path d="M 824.062593 187.262526 
L 814.082712 197.23056 
L 812.131299 191.364712 
L 788.189062 199.329662 
L 788.109413 199.090239 
L 812.051649 191.12529 
L 810.100237 185.259442 
z
" clip-path="url(#pac53f07a7b)" style="fill: #0000ff; opacity: 0.6; stroke: #0000ff; stroke-linejoin: miter"/>
   </g>
   <g id="patch_11">
    <path d="M 890.487529 165.199185 
L 880.505491 175.165059 
L 878.555348 169.298789 
L 854.611388 177.258557 
L 854.531791 177.019117 
L 878.47575 169.059349 
L 876.525607 163.193079 
z
" clip-path="url(#pac53f07a7b)" style="fill: #0000ff; opacity: 0.6; stroke: #0000ff; stroke-linejoin: miter"/>
   </g>
   <g id="patch_12">
    <path d="M 941.894489 148.669492 
L 931.731517 158.450786 
L 929.889192 152.549767 
L 905.803401 160.069461 
L 905.728204 159.828603 
L 929.813995 152.308909 
L 927.971671 146.407891 
z
" clip-path="url(#pac53f07a7b)" style="fill: #0000ff; opacity: 0.6; stroke: #0000ff; stroke-linejoin: miter"/>
   </g>
   <g id="patch_13">
    <path d="M 942.677918 214.354185 
L 933.849262 203.353523 
L 939.891937 202.04882 
L 934.566616 177.384836 
L 934.813256 177.331583 
L 940.138577 201.995566 
L 946.181253 200.690863 
z
" clip-path="url(#pac53f07a7b)" style="fill: #0000ff; opacity: 0.6; stroke: #0000ff; stroke-linejoin: miter"/>
   </g>
   <g id="patch_14">
    <path d="M 976.772899 261.168109 
L 965.004014 253.392951 
L 970.358577 250.303479 
L 957.748488 228.448119 
L 957.967042 228.322018 
L 970.577131 250.177378 
L 975.931694 247.087906 
z
" clip-path="url(#pac53f07a7b)" style="fill: #0000ff; opacity: 0.6; stroke: #0000ff; stroke-linejoin: miter"/>
   </g>
   <g id="patch_15">
    <path d="M 1006.164798 312.212294 
L 994.402995 304.426428 
L 999.760368 301.341831 
L 987.170176 279.475002 
L 987.388844 279.3491 
L 999.979036 301.215929 
L 1005.336409 298.131332 
z
" clip-path="url(#pac53f07a7b)" style="fill: #0000ff; opacity: 0.6; stroke: #0000ff; stroke-linejoin: miter"/>
   </g>
   <g id="patch_16">
    <path d="M 1028.392812 366.359166 
L 1018.748403 356.066202 
L 1024.673549 354.303015 
L 1017.476866 330.118746 
L 1017.718709 330.046779 
L 1024.915392 354.231048 
L 1030.840538 352.46786 
z
" clip-path="url(#pac53f07a7b)" style="fill: #0000ff; opacity: 0.6; stroke: #0000ff; stroke-linejoin: miter"/>
   </g>
   <g id="patch_17">
    <path d="M 1048.109439 402.354791 
L 1036.64457 394.137948 
L 1042.112687 391.254221 
L 1030.342371 368.935377 
L 1030.565559 368.817674 
L 1042.335875 391.136518 
L 1047.803992 388.25279 
z
" clip-path="url(#pac53f07a7b)" style="fill: #0000ff; opacity: 0.6; stroke: #0000ff; stroke-linejoin: miter"/>
   </g>
   <g id="patch_18">
    <path d="M 1058.611521 435.227007 
L 1047.050798 427.145584 
L 1052.484617 424.197739 
L 1040.452599 402.018883 
L 1040.674388 401.898563 
L 1052.706406 424.077419 
L 1058.140226 421.129575 
z
" clip-path="url(#pac53f07a7b)" style="fill: #0000ff; opacity: 0.6; stroke: #0000ff; stroke-linejoin: miter"/>
   </g>
   <g id="patch_19">
    <path d="M 1066.333195 461.45345 
L 1055.386649 452.557785 
L 1061.019272 450.010289 
L 1050.621331 427.019988 
L 1050.851234 426.916009 
L 1061.249176 449.90631 
L 1066.881799 447.358814 
z
" clip-path="url(#pac53f07a7b)" style="fill: #0000ff; opacity: 0.6; stroke: #0000ff; stroke-linejoin: miter"/>
   </g>
   <g id="patch_20">
    <path d="M 1074.076055 486.107953 
L 1063.771246 476.476202 
L 1069.566635 474.32454 
L 1060.78434 450.669891 
L 1061.020887 450.582068 
L 1069.803181 474.236717 
L 1075.59857 472.085055 
z
" clip-path="url(#pac53f07a7b)" style="fill: #0000ff; opacity: 0.6; stroke: #0000ff; stroke-linejoin: miter"/>
   </g>
   <g id="patch_21">
    <path d="M 1080.094799 501.913418 
L 1069.999086 492.062718 
L 1075.83932 490.035936 
L 1067.566738 466.198245 
L 1067.805115 466.115519 
L 1076.077697 489.95321 
L 1081.917931 487.926427 
z
" clip-path="url(#pac53f07a7b)" style="fill: #0000ff; opacity: 0.6; stroke: #0000ff; stroke-linejoin: miter"/>
   </g>
   <g id="patch_22">
    <path d="M 1086.143858 516.417831 
L 1075.854848 506.769204 
L 1081.653756 504.627043 
L 1072.910242 480.958032 
L 1073.146932 480.870596 
L 1081.890446 504.539608 
L 1087.689353 502.397447 
z
" clip-path="url(#pac53f07a7b)" style="fill: #0000ff; opacity: 0.6; stroke: #0000ff; stroke-linejoin: miter"/>
   </g>
   <g id="patch_23">
    <path d="M 1090.547565 526.859122 
L 1080.111854 517.369355 
L 1085.877242 515.138551 
L 1076.771919 491.606355 
L 1077.007241 491.515302 
L 1086.112564 515.047498 
L 1091.877952 512.816694 
z
" clip-path="url(#pac53f07a7b)" style="fill: #0000ff; opacity: 0.6; stroke: #0000ff; stroke-linejoin: miter"/>
   </g>
   <g id="patch_24">
    <path d="M 1094.507776 536.894442 
L 1084.039691 527.4404 
L 1089.79742 525.189903 
L 1080.611719 501.688966 
L 1080.846728 501.597109 
L 1090.03243 525.098046 
L 1095.790159 522.847549 
z
" clip-path="url(#pac53f07a7b)" style="fill: #0000ff; opacity: 0.6; stroke: #0000ff; stroke-linejoin: miter"/>
   </g>
   <g id="patch_25">
    <path d="M 1097.429901 544.423447 
L 1086.958196 534.973415 
L 1092.715063 532.720712 
L 1083.520359 509.223297 
L 1083.755333 509.13135 
L 1092.950037 532.628765 
L 1098.706904 530.376063 
z
" clip-path="url(#pac53f07a7b)" style="fill: #0000ff; opacity: 0.6; stroke: #0000ff; stroke-linejoin: miter"/>
   </g>
   <g id="patch_26">
    <path d="M 1100.345445 551.626177 
L 1089.834356 542.219969 
L 1095.581763 539.943239 
L 1086.288987 516.484436 
L 1086.523575 516.391509 
L 1095.816351 539.850311 
L 1101.563758 537.573581 
z
" clip-path="url(#pac53f07a7b)" style="fill: #0000ff; opacity: 0.6; stroke: #0000ff; stroke-linejoin: miter"/>
   </g>
   <g id="patch_27">
    <path d="M 1091.871562 555.407443 
C 1098.563257 555.407443 1104.981779 552.748804 1109.713522 548.017061 
C 1114.445266 543.285317 1117.103904 536.866795 1117.103904 530.1751 
C 1117.103904 523.483404 1114.445266 517.064883 1109.713522 512.333139 
C 1104.981779 507.601396 1098.563257 504.942757 1091.871562 504.942757 
C 1085.179866 504.942757 1078.761344 507.601396 1074.029601 512.333139 
C 1069.297858 517.064883 1066.639219 523.483404 1066.639219 530.1751 
C 1066.639219 536.866795 1069.297858 543.285317 1074.029601 548.017061 
C 1078.761344 552.748804 1085.179866 555.407443 1091.871562 555.407443 
L 1091.871562 555.407443 
z
" clip-path="url(#pac53f07a7b)" style="fill: none; stroke-dasharray: 3.7,1.6; stroke-dashoffset: 0; stroke: #ff0000; stroke-linejoin: miter"/>
   </g>
   <g id="matplotlib.axis_1">
    <g id="xtick_1">
     <g id="line2d_1">
      <path d="M 271.820423 656.567333 
L 271.820423 45.248 
" clip-path="url(#pac53f07a7b)" style="fill: none; stroke: #b0b0b0; stroke-width: 0.8; stroke-linecap: square"/>
     </g>
     <g id="line2d_2">
      <defs>
       <path id="md1d10f470b" d="M 0 0 
L 0 3.5 
" style="stroke: #000000; stroke-width: 0.8"/>
      </defs>
      <g>
       <use xlink:href="#md1d10f470b" x="271.820423" y="656.567333" style="stroke: #000000; stroke-width: 0.8"/>
      </g>
     </g>
     <g id="text_1">
      <!-- −2 -->
      <g transform="translate(264.449329 671.165771) scale(0.1 -0.1)">
       <defs>
        <path id="DejaVuSans-2212" d="M 678 2272 
L 4684 2272 
L 4684 1741 
L 678 1741 
L 678 2272 
z
" transform="scale(0.015625)"/>
        <path id="DejaVuSans-32" d="M 1228 531 
L 3431 531 
L 3431 0 
L 469 0 
L 469 531 
Q 828 903 1448 1529 
Q 2069 2156 2228 2338 
Q 2531 2678 2651 2914 
Q 2772 3150 2772 3378 
Q 2772 3750 2511 3984 
Q 2250 4219 1831 4219 
Q 1534 4219 1204 4116 
Q 875 4013 500 3803 
L 500 4441 
Q 881 4594 1212 4672 
Q 1544 4750 1819 4750 
Q 2544 4750 2975 4387 
Q 3406 4025 3406 3419 
Q 3406 3131 3298 2873 
Q 3191 2616 2906 2266 
Q 2828 2175 2409 1742 
Q 1991 1309 1228 531 
z
" transform="scale(0.015625)"/>
       </defs>
       <use xlink:href="#DejaVuSans-2212"/>
       <use xlink:href="#DejaVuSans-32" x="83.789062"/>
      </g>
     </g>
    </g>
    <g id="xtick_2">
     <g id="line2d_3">
      <path d="M 524.14385 656.567333 
L 524.14385 45.248 
" clip-path="url(#pac53f07a7b)" style="fill: none; stroke: #b0b0b0; stroke-width: 0.8; stroke-linecap: square"/>
     </g>
     <g id="line2d_4">
      <g>
       <use xlink:href="#md1d10f470b" x="524.14385" y="656.567333" style="stroke: #000000; stroke-width: 0.8"/>
      </g>
     </g>
     <g id="text_2">
      <!-- −1 -->
      <g transform="translate(516.772756 671.165771) scale(0.1 -0.1)">
       <defs>
        <path id="DejaVuSans-31" d="M 794 531 
L 1825 531 
L 1825 4091 
L 703 3866 
L 703 4441 
L 1819 4666 
L 2450 4666 
L 2450 531 
L 3481 531 
L 3481 0 
L 794 0 
L 794 531 
z
" transform="scale(0.015625)"/>
       </defs>
       <use xlink:href="#DejaVuSans-2212"/>
       <use xlink:href="#DejaVuSans-31" x="83.789062"/>
      </g>
     </g>
    </g>
    <g id="xtick_3">
     <g id="line2d_5">
      <path d="M 776.467278 656.567333 
L 776.467278 45.248 
" clip-path="url(#pac53f07a7b)" style="fill: none; stroke: #b0b0b0; stroke-width: 0.8; stroke-linecap: square"/>
     </g>
     <g id="line2d_6">
      <g>
       <use xlink:href="#md1d10f470b" x="776.467278" y="656.567333" style="stroke: #000000; stroke-width: 0.8"/>
      </g>
     </g>
     <g id="text_3">
      <!-- 0 -->
      <g transform="translate(773.286028 671.165771) scale(0.1 -0.1)">
       <defs>
        <path id="DejaVuSans-30" d="M 2034 4250 
Q 1547 4250 1301 3770 
Q 1056 3291 1056 2328 
Q 1056 1369 1301 889 
Q 1547 409 2034 409 
Q 2525 409 2770 889 
Q 3016 1369 3016 2328 
Q 3016 3291 2770 3770 
Q 2525 4250 2034 4250 
z
M 2034 4750 
Q 2819 4750 3233 4129 
Q 3647 3509 3647 2328 
Q 3647 1150 3233 529 
Q 2819 -91 2034 -91 
Q 1250 -91 836 529 
Q 422 1150 422 2328 
Q 422 3509 836 4129 
Q 1250 4750 2034 4750 
z
" transform="scale(0.015625)"/>
       </defs>
       <use xlink:href="#DejaVuSans-30"/>
      </g>
     </g>
    </g>
    <g id="xtick_4">
     <g id="line2d_7">
      <path d="M 1028.790705 656.567333 
L 1028.790705 45.248 
" clip-path="url(#pac53f07a7b)" style="fill: none; stroke: #b0b0b0; stroke-width: 0.8; stroke-linecap: square"/>
     </g>
     <g id="line2d_8">
      <g>
       <use xlink:href="#md1d10f470b" x="1028.790705" y="656.567333" style="stroke: #000000; stroke-width: 0.8"/>
      </g>
     </g>
     <g id="text_4">
      <!-- 1 -->
      <g transform="translate(1025.609455 671.165771) scale(0.1 -0.1)">
       <use xlink:href="#DejaVuSans-31"/>
      </g>
     </g>
    </g>
    <g id="xtick_5">
     <g id="line2d_9">
      <path d="M 1281.114132 656.567333 
L 1281.114132 45.248 
" clip-path="url(#pac53f07a7b)" style="fill: none; stroke: #b0b0b0; stroke-width: 0.8; stroke-linecap: square"/>
     </g>
     <g id="line2d_10">
      <g>
       <use xlink:href="#md1d10f470b" x="1281.114132" y="656.567333" style="stroke: #000000; stroke-width: 0.8"/>
      </g>
     </g>
     <g id="text_5">
      <!-- 2 -->
      <g transform="translate(1277.932882 671.165771) scale(0.1 -0.1)">
       <use xlink:href="#DejaVuSans-32"/>
      </g>
     </g>
    </g>
    <g id="text_6">
     <!-- X (m) -->
     <g transform="translate(712.954951 684.843896) scale(0.1 -0.1)">
      <defs>
       <path id="DejaVuSans-58" d="M 403 4666 
L 1081 4666 
L 2241 2931 
L 3406 4666 
L 4084 4666 
L 2584 2425 
L 4184 0 
L 3506 0 
L 2194 1984 
L 872 0 
L 191 0 
L 1856 2491 
L 403 4666 
z
" transform="scale(0.015625)"/>
       <path id="DejaVuSans-20" transform="scale(0.015625)"/>
       <path id="DejaVuSans-28" d="M 1984 4856 
Q 1566 4138 1362 3434 
Q 1159 2731 1159 2009 
Q 1159 1288 1364 580 
Q 1569 -128 1984 -844 
L 1484 -844 
Q 1016 -109 783 600 
Q 550 1309 550 2009 
Q 550 2706 781 3412 
Q 1013 4119 1484 4856 
L 1984 4856 
z
" transform="scale(0.015625)"/>
       <path id="DejaVuSans-6d" d="M 3328 2828 
Q 3544 3216 3844 3400 
Q 4144 3584 4550 3584 
Q 5097 3584 5394 3201 
Q 5691 2819 5691 2113 
L 5691 0 
L 5113 0 
L 5113 2094 
Q 5113 2597 4934 2840 
Q 4756 3084 4391 3084 
Q 3944 3084 3684 2787 
Q 3425 2491 3425 1978 
L 3425 0 
L 2847 0 
L 2847 2094 
Q 2847 2600 2669 2842 
Q 2491 3084 2119 3084 
Q 1678 3084 1418 2786 
Q 1159 2488 1159 1978 
L 1159 0 
L 581 0 
L 581 3500 
L 1159 3500 
L 1159 2956 
Q 1356 3278 1631 3431 
Q 1906 3584 2284 3584 
Q 2666 3584 2933 3390 
Q 3200 3197 3328 2828 
z
" transform="scale(0.015625)"/>
       <path id="DejaVuSans-29" d="M 513 4856 
L 1013 4856 
Q 1481 4119 1714 3412 
Q 1947 2706 1947 2009 
Q 1947 1309 1714 600 
Q 1481 -109 1013 -844 
L 513 -844 
Q 928 -128 1133 580 
Q 1338 1288 1338 2009 
Q 1338 2731 1133 3434 
Q 928 4138 513 4856 
z
" transform="scale(0.015625)"/>
      </defs>
      <use xlink:href="#DejaVuSans-58"/>
      <use xlink:href="#DejaVuSans-20" x="68.505859"/>
      <use xlink:href="#DejaVuSans-28" x="100.292969"/>
      <use xlink:href="#DejaVuSans-6d" x="139.306641"/>
      <use xlink:href="#DejaVuSans-29" x="236.71875"/>
     </g>
    </g>
   </g>
   <g id="matplotlib.axis_2">
    <g id="ytick_1">
     <g id="line2d_11">
      <path d="M 114.528 599.564043 
L 1338.953777 599.564043 
" clip-path="url(#pac53f07a7b)" style="fill: none; stroke: #b0b0b0; stroke-width: 0.8; stroke-linecap: square"/>
     </g>
     <g id="line2d_12">
      <defs>
       <path id="m21eb25ce79" d="M 0 0 
L -3.5 0 
" style="stroke: #000000; stroke-width: 0.8"/>
      </defs>
      <g>
       <use xlink:href="#m21eb25ce79" x="114.528" y="599.564043" style="stroke: #000000; stroke-width: 0.8"/>
      </g>
     </g>
     <g id="text_7">
      <!-- 0.0 -->
      <g transform="translate(91.624875 603.363261) scale(0.1 -0.1)">
       <defs>
        <path id="DejaVuSans-2e" d="M 684 794 
L 1344 794 
L 1344 0 
L 684 0 
L 684 794 
z
" transform="scale(0.015625)"/>
       </defs>
       <use xlink:href="#DejaVuSans-30"/>
       <use xlink:href="#DejaVuSans-2e" x="63.623047"/>
       <use xlink:href="#DejaVuSans-30" x="95.410156"/>
      </g>
     </g>
    </g>
    <g id="ytick_2">
     <g id="line2d_13">
      <path d="M 114.528 473.402329 
L 1338.953777 473.402329 
" clip-path="url(#pac53f07a7b)" style="fill: none; stroke: #b0b0b0; stroke-width: 0.8; stroke-linecap: square"/>
     </g>
     <g id="line2d_14">
      <g>
       <use xlink:href="#m21eb25ce79" x="114.528" y="473.402329" style="stroke: #000000; stroke-width: 0.8"/>
      </g>
     </g>
     <g id="text_8">
      <!-- 0.5 -->
      <g transform="translate(91.624875 477.201548) scale(0.1 -0.1)">
       <defs>
        <path id="DejaVuSans-35" d="M 691 4666 
L 3169 4666 
L 3169 4134 
L 1269 4134 
L 1269 2991 
Q 1406 3038 1543 3061 
Q 1681 3084 1819 3084 
Q 2600 3084 3056 2656 
Q 3513 2228 3513 1497 
Q 3513 744 3044 326 
Q 2575 -91 1722 -91 
Q 1428 -91 1123 -41 
Q 819 9 494 109 
L 494 744 
Q 775 591 1075 516 
Q 1375 441 1709 441 
Q 2250 441 2565 725 
Q 2881 1009 2881 1497 
Q 2881 1984 2565 2268 
Q 2250 2553 1709 2553 
Q 1456 2553 1204 2497 
Q 953 2441 691 2322 
L 691 4666 
z
" transform="scale(0.015625)"/>
       </defs>
       <use xlink:href="#DejaVuSans-30"/>
       <use xlink:href="#DejaVuSans-2e" x="63.623047"/>
       <use xlink:href="#DejaVuSans-35" x="95.410156"/>
      </g>
     </g>
    </g>
    <g id="ytick_3">
     <g id="line2d_15">
      <path d="M 114.528 347.240615 
L 1338.953777 347.240615 
" clip-path="url(#pac53f07a7b)" style="fill: none; stroke: #b0b0b0; stroke-width: 0.8; stroke-linecap: square"/>
     </g>
     <g id="line2d_16">
      <g>
       <use xlink:href="#m21eb25ce79" x="114.528" y="347.240615" style="stroke: #000000; stroke-width: 0.8"/>
      </g>
     </g>
     <g id="text_9">
      <!-- 1.0 -->
      <g transform="translate(91.624875 351.039834) scale(0.1 -0.1)">
       <use xlink:href="#DejaVuSans-31"/>
       <use xlink:href="#DejaVuSans-2e" x="63.623047"/>
       <use xlink:href="#DejaVuSans-30" x="95.410156"/>
      </g>
     </g>
    </g>
    <g id="ytick_4">
     <g id="line2d_17">
      <path d="M 114.528 221.078901 
L 1338.953777 221.078901 
" clip-path="url(#pac53f07a7b)" style="fill: none; stroke: #b0b0b0; stroke-width: 0.8; stroke-linecap: square"/>
     </g>
     <g id="line2d_18">
      <g>
       <use xlink:href="#m21eb25ce79" x="114.528" y="221.078901" style="stroke: #000000; stroke-width: 0.8"/>
      </g>
     </g>
     <g id="text_10">
      <!-- 1.5 -->
      <g transform="translate(91.624875 224.87812) scale(0.1 -0.1)">
       <use xlink:href="#DejaVuSans-31"/>
       <use xlink:href="#DejaVuSans-2e" x="63.623047"/>
       <use xlink:href="#DejaVuSans-35" x="95.410156"/>
      </g>
     </g>
    </g>
    <g id="ytick_5">
     <g id="line2d_19">
      <path d="M 114.528 94.917188 
L 1338.953777 94.917188 
" clip-path="url(#pac53f07a7b)" style="fill: none; stroke: #b0b0b0; stroke-width: 0.8; stroke-linecap: square"/>
     </g>
     <g id="line2d_20">
      <g>
       <use xlink:href="#m21eb25ce79" x="114.528" y="94.917188" style="stroke: #000000; stroke-width: 0.8"/>
      </g>
     </g>
     <g id="text_11">
      <!-- 2.0 -->
      <g transform="translate(91.624875 98.716407) scale(0.1 -0.1)">
       <use xlink:href="#DejaVuSans-32"/>
       <use xlink:href="#DejaVuSans-2e" x="63.623047"/>
       <use xlink:href="#DejaVuSans-30" x="95.410156"/>
      </g>
     </g>
    </g>
    <g id="text_12">
     <!-- Y (m) -->
     <g transform="translate(85.545187 364.32251) rotate(-90) scale(0.1 -0.1)">
      <defs>
       <path id="DejaVuSans-59" d="M -13 4666 
L 666 4666 
L 1959 2747 
L 3244 4666 
L 3922 4666 
L 2272 2222 
L 2272 0 
L 1638 0 
L 1638 2222 
L -13 4666 
z
" transform="scale(0.015625)"/>
      </defs>
      <use xlink:href="#DejaVuSans-59"/>
      <use xlink:href="#DejaVuSans-20" x="61.083984"/>
      <use xlink:href="#DejaVuSans-28" x="92.871094"/>
      <use xlink:href="#DejaVuSans-6d" x="131.884766"/>
      <use xlink:href="#DejaVuSans-29" x="229.296875"/>
     </g>
    </g>
   </g>
   <g id="line2d_21">
    <path d="M 336.438237 164.653358 
L 359.531309 177.32849 
L 382.856328 183.583398 
L 402.848183 188.26709 
L 425.784219 198.994694 
L 450.794901 218.459499 
L 471.67644 234.344266 
L 492.241115 243.989132 
L 518.108306 250.056578 
L 544.372045 257.138148 
L 561.130836 266.834623 
L 578.909924 282.675958 
L 591.277485 292.713442 
L 594.40337 295.738935 
L 595.193872 298.691832 
L 598.74242 301.225932 
L 606.603362 298.447856 
L 617.44887 292.764189 
L 628.320056 287.104204 
L 638.011987 282.092708 
L 652.376816 274.693572 
L 660.190814 270.545553 
L 668.889452 265.587513 
L 674.766525 261.979321 
L 685.639504 254.972849 
L 695.574584 248.334269 
L 706.696338 240.693891 
L 719.840264 231.67505 
L 731.973434 223.350278 
L 742.085098 216.413664 
L 751.002635 209.955897 
L 755.946049 201.937554 
L 763.826745 201.269668 
L 770.506395 202.922889 
L 775.651409 203.209663 
L 788.149238 199.20995 
L 800.97042 194.946004 
L 816.118864 189.913636 
L 831.267166 184.881156 
L 844.084605 180.622916 
L 854.571589 177.138837 
L 865.058552 173.654698 
L 876.710701 169.783352 
L 886.03239 166.686205 
L 894.188838 163.976139 
L 905.765803 159.949032 
L 915.450305 151.777606 
L 924.802621 150.432463 
L 933.965726 160.571574 
L 933.177572 167.540868 
L 934.689936 177.35821 
L 934.622336 184.357492 
L 936.189596 191.351924 
L 942.487907 201.846283 
L 949.881998 214.572496 
L 957.857765 228.385069 
L 962.150903 235.824101 
L 968.28244 246.452758 
L 973.799343 256.019981 
L 979.92765 266.651782 
L 987.27951 279.412051 
L 993.404371 290.047362 
L 998.915697 299.620325 
L 1003.813608 308.130652 
L 1010.521252 319.800315 
L 1017.597787 330.082762 
L 1020.499616 336.870783 
L 1021.184091 344.542526 
L 1022.023691 354.134906 
L 1025.548607 363.209905 
L 1030.453965 368.876525 
L 1035.245082 374.620715 
L 1038.350667 381.81398 
L 1038.574481 390.390523 
L 1038.702077 396.563671 
L 1040.563494 401.958723 
L 1044.071519 406.928358 
L 1047.98002 413.058985 
L 1049.417693 416.811978 
L 1049.921676 421.244963 
L 1050.736283 426.967998 
L 1053.324526 433.342421 
L 1056.194577 437.673975 
L 1058.836469 441.779203 
L 1060.351673 446.200543 
L 1060.902613 450.62598 
L 1061.663319 454.732091 
L 1063.337487 458.566797 
L 1065.322106 461.403123 
L 1066.753716 463.629455 
L 1067.685926 466.156882 
L 1068.741528 470.55307 
L 1069.48084 473.054118 
L 1070.651407 475.67651 
L 1071.643915 477.641384 
L 1073.028587 480.914314 
L 1073.769999 482.988553 
L 1074.577642 485.555848 
L 1075.235046 487.474756 
L 1075.845558 489.027635 
L 1076.88958 491.560829 
L 1077.805089 493.845688 
L 1078.498452 495.680455 
L 1079.139466 497.436742 
L 1079.83821 499.313426 
L 1080.729224 501.643038 
L 1081.459114 503.511917 
L 1082.024737 504.961254 
L 1082.444724 506.05005 
L 1083.191396 508.00499 
L 1083.637846 509.177323 
L 1084.16664 510.565152 
L 1084.779008 512.166673 
L 1085.268271 513.446457 
L 1085.964667 515.275233 
L 1086.406281 516.437973 
" clip-path="url(#pac53f07a7b)" style="fill: none; stroke: #0000ff; stroke-opacity: 0.4; stroke-width: 1.5; stroke-linecap: square"/>
   </g>
   <g id="line2d_22">
    <defs>
     <path id="mebef0ef26d" d="M -5 5 
L 5 -5 
M -5 -5 
L 5 5 
" style="stroke: #ff0000"/>
    </defs>
    <g clip-path="url(#pac53f07a7b)">
     <use xlink:href="#mebef0ef26d" x="1091.871562" y="530.1751" style="fill: #ff0000; stroke: #ff0000"/>
    </g>
   </g>
   <g id="line2d_23">
    <defs>
     <path id="m8b8605e1c2" d="M 0 4 
C 1.060812 4 2.078319 3.578535 2.828427 2.828427 
C 3.578535 2.078319 4 1.060812 4 0 
C 4 -1.060812 3.578535 -2.078319 2.828427 -2.828427 
C 2.078319 -3.578535 1.060812 -4 0 -4 
C -1.060812 -4 -2.078319 -3.578535 -2.828427 -2.828427 
C -3.578535 -2.078319 -4 -1.060812 -4 0 
C -4 1.060812 -3.578535 2.078319 -2.828427 2.828427 
C -2.078319 3.578535 -1.060812 4 0 4 
z
" style="stroke: #0000ff"/>
    </defs>
    <g clip-path="url(#pac53f07a7b)">
     <use xlink:href="#m8b8605e1c2" x="1086.406281" y="516.437973" style="fill: #0000ff; stroke: #0000ff"/>
    </g>
   </g>
   <g id="patch_28">
    <path d="M 114.528 656.567333 
L 114.528 45.248 
" style="fill: none; stroke: #000000; stroke-width: 0.8; stroke-linejoin: miter; stroke-linecap: square"/>
   </g>
   <g id="patch_29">
    <path d="M 1338.953777 656.567333 
L 1338.953777 45.248 
" style="fill: none; stroke: #000000; stroke-width: 0.8; stroke-linejoin: miter; stroke-linecap: square"/>
   </g>
   <g id="patch_30">
    <path d="M 114.528 656.567333 
L 1338.953777 656.567333 
" style="fill: none; stroke: #000000; stroke-width: 0.8; stroke-linejoin: miter; stroke-linecap: square"/>
   </g>
   <g id="patch_31">
    <path d="M 114.528 45.248 
L 1338.953777 45.248 
" style="fill: none; stroke: #000000; stroke-width: 0.8; stroke-linejoin: miter; stroke-linecap: square"/>
   </g>
   <g id="text_13">
    <!-- Robot Path with Orientation -->
    <g transform="translate(643.836826 39.248) scale(0.12 -0.12)">
     <defs>
      <path id="DejaVuSans-52" d="M 2841 2188 
Q 3044 2119 3236 1894 
Q 3428 1669 3622 1275 
L 4263 0 
L 3584 0 
L 2988 1197 
Q 2756 1666 2539 1819 
Q 2322 1972 1947 1972 
L 1259 1972 
L 1259 0 
L 628 0 
L 628 4666 
L 2053 4666 
Q 2853 4666 3247 4331 
Q 3641 3997 3641 3322 
Q 3641 2881 3436 2590 
Q 3231 2300 2841 2188 
z
M 1259 4147 
L 1259 2491 
L 2053 2491 
Q 2509 2491 2742 2702 
Q 2975 2913 2975 3322 
Q 2975 3731 2742 3939 
Q 2509 4147 2053 4147 
L 1259 4147 
z
" transform="scale(0.015625)"/>
      <path id="DejaVuSans-6f" d="M 1959 3097 
Q 1497 3097 1228 2736 
Q 959 2375 959 1747 
Q 959 1119 1226 758 
Q 1494 397 1959 397 
Q 2419 397 2687 759 
Q 2956 1122 2956 1747 
Q 2956 2369 2687 2733 
Q 2419 3097 1959 3097 
z
M 1959 3584 
Q 2709 3584 3137 3096 
Q 3566 2609 3566 1747 
Q 3566 888 3137 398 
Q 2709 -91 1959 -91 
Q 1206 -91 779 398 
Q 353 888 353 1747 
Q 353 2609 779 3096 
Q 1206 3584 1959 3584 
z
" transform="scale(0.015625)"/>
      <path id="DejaVuSans-62" d="M 3116 1747 
Q 3116 2381 2855 2742 
Q 2594 3103 2138 3103 
Q 1681 3103 1420 2742 
Q 1159 2381 1159 1747 
Q 1159 1113 1420 752 
Q 1681 391 2138 391 
Q 2594 391 2855 752 
Q 3116 1113 3116 1747 
z
M 1159 2969 
Q 1341 3281 1617 3432 
Q 1894 3584 2278 3584 
Q 2916 3584 3314 3078 
Q 3713 2572 3713 1747 
Q 3713 922 3314 415 
Q 2916 -91 2278 -91 
Q 1894 -91 1617 61 
Q 1341 213 1159 525 
L 1159 0 
L 581 0 
L 581 4863 
L 1159 4863 
L 1159 2969 
z
" transform="scale(0.015625)"/>
      <path id="DejaVuSans-74" d="M 1172 4494 
L 1172 3500 
L 2356 3500 
L 2356 3053 
L 1172 3053 
L 1172 1153 
Q 1172 725 1289 603 
Q 1406 481 1766 481 
L 2356 481 
L 2356 0 
L 1766 0 
Q 1100 0 847 248 
Q 594 497 594 1153 
L 594 3053 
L 172 3053 
L 172 3500 
L 594 3500 
L 594 4494 
L 1172 4494 
z
" transform="scale(0.015625)"/>
      <path id="DejaVuSans-50" d="M 1259 4147 
L 1259 2394 
L 2053 2394 
Q 2494 2394 2734 2622 
Q 2975 2850 2975 3272 
Q 2975 3691 2734 3919 
Q 2494 4147 2053 4147 
L 1259 4147 
z
M 628 4666 
L 2053 4666 
Q 2838 4666 3239 4311 
Q 3641 3956 3641 3272 
Q 3641 2581 3239 2228 
Q 2838 1875 2053 1875 
L 1259 1875 
L 1259 0 
L 628 0 
L 628 4666 
z
" transform="scale(0.015625)"/>
      <path id="DejaVuSans-61" d="M 2194 1759 
Q 1497 1759 1228 1600 
Q 959 1441 959 1056 
Q 959 750 1161 570 
Q 1363 391 1709 391 
Q 2188 391 2477 730 
Q 2766 1069 2766 1631 
L 2766 1759 
L 2194 1759 
z
M 3341 1997 
L 3341 0 
L 2766 0 
L 2766 531 
Q 2569 213 2275 61 
Q 1981 -91 1556 -91 
Q 1019 -91 701 211 
Q 384 513 384 1019 
Q 384 1609 779 1909 
Q 1175 2209 1959 2209 
L 2766 2209 
L 2766 2266 
Q 2766 2663 2505 2880 
Q 2244 3097 1772 3097 
Q 1472 3097 1187 3025 
Q 903 2953 641 2809 
L 641 3341 
Q 956 3463 1253 3523 
Q 1550 3584 1831 3584 
Q 2591 3584 2966 3190 
Q 3341 2797 3341 1997 
z
" transform="scale(0.015625)"/>
      <path id="DejaVuSans-68" d="M 3513 2113 
L 3513 0 
L 2938 0 
L 2938 2094 
Q 2938 2591 2744 2837 
Q 2550 3084 2163 3084 
Q 1697 3084 1428 2787 
Q 1159 2491 1159 1978 
L 1159 0 
L 581 0 
L 581 4863 
L 1159 4863 
L 1159 2956 
Q 1366 3272 1645 3428 
Q 1925 3584 2291 3584 
Q 2894 3584 3203 3211 
Q 3513 2838 3513 2113 
z
" transform="scale(0.015625)"/>
      <path id="DejaVuSans-77" d="M 269 3500 
L 844 3500 
L 1563 769 
L 2278 3500 
L 2956 3500 
L 3675 769 
L 4391 3500 
L 4966 3500 
L 4050 0 
L 3372 0 
L 2619 2869 
L 1863 0 
L 1184 0 
L 269 3500 
z
" transform="scale(0.015625)"/>
      <path id="DejaVuSans-69" d="M 603 3500 
L 1178 3500 
L 1178 0 
L 603 0 
L 603 3500 
z
M 603 4863 
L 1178 4863 
L 1178 4134 
L 603 4134 
L 603 4863 
z
" transform="scale(0.015625)"/>
      <path id="DejaVuSans-4f" d="M 2522 4238 
Q 1834 4238 1429 3725 
Q 1025 3213 1025 2328 
Q 1025 1447 1429 934 
Q 1834 422 2522 422 
Q 3209 422 3611 934 
Q 4013 1447 4013 2328 
Q 4013 3213 3611 3725 
Q 3209 4238 2522 4238 
z
M 2522 4750 
Q 3503 4750 4090 4092 
Q 4678 3434 4678 2328 
Q 4678 1225 4090 567 
Q 3503 -91 2522 -91 
Q 1538 -91 948 565 
Q 359 1222 359 2328 
Q 359 3434 948 4092 
Q 1538 4750 2522 4750 
z
" transform="scale(0.015625)"/>
      <path id="DejaVuSans-72" d="M 2631 2963 
Q 2534 3019 2420 3045 
Q 2306 3072 2169 3072 
Q 1681 3072 1420 2755 
Q 1159 2438 1159 1844 
L 1159 0 
L 581 0 
L 581 3500 
L 1159 3500 
L 1159 2956 
Q 1341 3275 1631 3429 
Q 1922 3584 2338 3584 
Q 2397 3584 2469 3576 
Q 2541 3569 2628 3553 
L 2631 2963 
z
" transform="scale(0.015625)"/>
      <path id="DejaVuSans-65" d="M 3597 1894 
L 3597 1613 
L 953 1613 
Q 991 1019 1311 708 
Q 1631 397 2203 397 
Q 2534 397 2845 478 
Q 3156 559 3463 722 
L 3463 178 
Q 3153 47 2828 -22 
Q 2503 -91 2169 -91 
Q 1331 -91 842 396 
Q 353 884 353 1716 
Q 353 2575 817 3079 
Q 1281 3584 2069 3584 
Q 2775 3584 3186 3129 
Q 3597 2675 3597 1894 
z
M 3022 2063 
Q 3016 2534 2758 2815 
Q 2500 3097 2075 3097 
Q 1594 3097 1305 2825 
Q 1016 2553 972 2059 
L 3022 2063 
z
" transform="scale(0.015625)"/>
      <path id="DejaVuSans-6e" d="M 3513 2113 
L 3513 0 
L 2938 0 
L 2938 2094 
Q 2938 2591 2744 2837 
Q 2550 3084 2163 3084 
Q 1697 3084 1428 2787 
Q 1159 2491 1159 1978 
L 1159 0 
L 581 0 
L 581 3500 
L 1159 3500 
L 1159 2956 
Q 1366 3272 1645 3428 
Q 1925 3584 2291 3584 
Q 2894 3584 3203 3211 
Q 3513 2838 3513 2113 
z
" transform="scale(0.015625)"/>
     </defs>
     <use xlink:href="#DejaVuSans-52"/>
     <use xlink:href="#DejaVuSans-6f" x="64.982422"/>
     <use xlink:href="#DejaVuSans-62" x="126.164062"/>
     <use xlink:href="#DejaVuSans-6f" x="189.640625"/>
     <use xlink:href="#DejaVuSans-74" x="250.822266"/>
     <use xlink:href="#DejaVuSans-20" x="290.03125"/>
     <use xlink:href="#DejaVuSans-50" x="321.818359"/>
     <use xlink:href="#DejaVuSans-61" x="377.621094"/>
     <use xlink:href="#DejaVuSans-74" x="438.900391"/>
     <use xlink:href="#DejaVuSans-68" x="478.109375"/>
     <use xlink:href="#DejaVuSans-20" x="541.488281"/>
     <use xlink:href="#DejaVuSans-77" x="573.275391"/>
     <use xlink:href="#DejaVuSans-69" x="655.0625"/>
     <use xlink:href="#DejaVuSans-74" x="682.845703"/>
     <use xlink:href="#DejaVuSans-68" x="722.054688"/>
     <use xlink:href="#DejaVuSans-20" x="785.433594"/>
     <use xlink:href="#DejaVuSans-4f" x="817.220703"/>
     <use xlink:href="#DejaVuSans-72" x="895.931641"/>
     <use xlink:href="#DejaVuSans-69" x="937.044922"/>
     <use xlink:href="#DejaVuSans-65" x="964.828125"/>
     <use xlink:href="#DejaVuSans-6e" x="1026.351562"/>
     <use xlink:href="#DejaVuSans-74" x="1089.730469"/>
     <use xlink:href="#DejaVuSans-61" x="1128.939453"/>
     <use xlink:href="#DejaVuSans-74" x="1190.21875"/>
     <use xlink:href="#DejaVuSans-69" x="1229.427734"/>
     <use xlink:href="#DejaVuSans-6f" x="1257.210938"/>
     <use xlink:href="#DejaVuSans-6e" x="1318.392578"/>
    </g>
   </g>
   <g id="legend_1">
    <g id="patch_32">
     <path d="M 1234.799089 97.282375 
L 1331.953777 97.282375 
Q 1333.953777 97.282375 1333.953777 95.282375 
L 1333.953777 52.248 
Q 1333.953777 50.248 1331.953777 50.248 
L 1234.799089 50.248 
Q 1232.799089 50.248 1232.799089 52.248 
L 1232.799089 95.282375 
Q 1232.799089 97.282375 1234.799089 97.282375 
z
" style="fill: #ffffff; opacity: 0.8; stroke: #cccccc; stroke-linejoin: miter"/>
    </g>
    <g id="line2d_24">
     <path d="M 1236.799089 58.346437 
L 1246.799089 58.346437 
L 1256.799089 58.346437 
" style="fill: none; stroke: #0000ff; stroke-opacity: 0.4; stroke-width: 1.5; stroke-linecap: square"/>
    </g>
    <g id="text_14">
     <!-- Robot Path -->
     <g transform="translate(1264.799089 61.846437) scale(0.1 -0.1)">
      <use xlink:href="#DejaVuSans-52"/>
      <use xlink:href="#DejaVuSans-6f" x="64.982422"/>
      <use xlink:href="#DejaVuSans-62" x="126.164062"/>
      <use xlink:href="#DejaVuSans-6f" x="189.640625"/>
      <use xlink:href="#DejaVuSans-74" x="250.822266"/>
      <use xlink:href="#DejaVuSans-20" x="290.03125"/>
      <use xlink:href="#DejaVuSans-50" x="321.818359"/>
      <use xlink:href="#DejaVuSans-61" x="377.621094"/>
      <use xlink:href="#DejaVuSans-74" x="438.900391"/>
      <use xlink:href="#DejaVuSans-68" x="478.109375"/>
     </g>
    </g>
    <g id="line2d_25">
     <g>
      <use xlink:href="#mebef0ef26d" x="1246.799089" y="73.024562" style="fill: #ff0000; stroke: #ff0000"/>
     </g>
    </g>
    <g id="text_15">
     <!-- Target -->
     <g transform="translate(1264.799089 76.524562) scale(0.1 -0.1)">
      <defs>
       <path id="DejaVuSans-54" d="M -19 4666 
L 3928 4666 
L 3928 4134 
L 2272 4134 
L 2272 0 
L 1638 0 
L 1638 4134 
L -19 4134 
L -19 4666 
z
" transform="scale(0.015625)"/>
       <path id="DejaVuSans-67" d="M 2906 1791 
Q 2906 2416 2648 2759 
Q 2391 3103 1925 3103 
Q 1463 3103 1205 2759 
Q 947 2416 947 1791 
Q 947 1169 1205 825 
Q 1463 481 1925 481 
Q 2391 481 2648 825 
Q 2906 1169 2906 1791 
z
M 3481 434 
Q 3481 -459 3084 -895 
Q 2688 -1331 1869 -1331 
Q 1566 -1331 1297 -1286 
Q 1028 -1241 775 -1147 
L 775 -588 
Q 1028 -725 1275 -790 
Q 1522 -856 1778 -856 
Q 2344 -856 2625 -561 
Q 2906 -266 2906 331 
L 2906 616 
Q 2728 306 2450 153 
Q 2172 0 1784 0 
Q 1141 0 747 490 
Q 353 981 353 1791 
Q 353 2603 747 3093 
Q 1141 3584 1784 3584 
Q 2172 3584 2450 3431 
Q 2728 3278 2906 2969 
L 2906 3500 
L 3481 3500 
L 3481 434 
z
" transform="scale(0.015625)"/>
      </defs>
      <use xlink:href="#DejaVuSans-54"/>
      <use xlink:href="#DejaVuSans-61" x="44.583984"/>
      <use xlink:href="#DejaVuSans-72" x="105.863281"/>
      <use xlink:href="#DejaVuSans-67" x="145.226562"/>
      <use xlink:href="#DejaVuSans-65" x="208.703125"/>
      <use xlink:href="#DejaVuSans-74" x="270.226562"/>
     </g>
    </g>
    <g id="line2d_26">
     <g>
      <use xlink:href="#m8b8605e1c2" x="1246.799089" y="87.702687" style="fill: #0000ff; stroke: #0000ff"/>
     </g>
    </g>
    <g id="text_16">
     <!-- Final Position -->
     <g transform="translate(1264.799089 91.202687) scale(0.1 -0.1)">
      <defs>
       <path id="DejaVuSans-46" d="M 628 4666 
L 3309 4666 
L 3309 4134 
L 1259 4134 
L 1259 2759 
L 3109 2759 
L 3109 2228 
L 1259 2228 
L 1259 0 
L 628 0 
L 628 4666 
z
" transform="scale(0.015625)"/>
       <path id="DejaVuSans-6c" d="M 603 4863 
L 1178 4863 
L 1178 0 
L 603 0 
L 603 4863 
z
" transform="scale(0.015625)"/>
       <path id="DejaVuSans-73" d="M 2834 3397 
L 2834 2853 
Q 2591 2978 2328 3040 
Q 2066 3103 1784 3103 
Q 1356 3103 1142 2972 
Q 928 2841 928 2578 
Q 928 2378 1081 2264 
Q 1234 2150 1697 2047 
L 1894 2003 
Q 2506 1872 2764 1633 
Q 3022 1394 3022 966 
Q 3022 478 2636 193 
Q 2250 -91 1575 -91 
Q 1294 -91 989 -36 
Q 684 19 347 128 
L 347 722 
Q 666 556 975 473 
Q 1284 391 1588 391 
Q 1994 391 2212 530 
Q 2431 669 2431 922 
Q 2431 1156 2273 1281 
Q 2116 1406 1581 1522 
L 1381 1569 
Q 847 1681 609 1914 
Q 372 2147 372 2553 
Q 372 3047 722 3315 
Q 1072 3584 1716 3584 
Q 2034 3584 2315 3537 
Q 2597 3491 2834 3397 
z
" transform="scale(0.015625)"/>
      </defs>
      <use xlink:href="#DejaVuSans-46"/>
      <use xlink:href="#DejaVuSans-69" x="50.269531"/>
      <use xlink:href="#DejaVuSans-6e" x="78.052734"/>
      <use xlink:href="#DejaVuSans-61" x="141.431641"/>
      <use xlink:href="#DejaVuSans-6c" x="202.710938"/>
      <use xlink:href="#DejaVuSans-20" x="230.494141"/>
      <use xlink:href="#DejaVuSans-50" x="262.28125"/>
      <use xlink:href="#DejaVuSans-6f" x="318.958984"/>
      <use xlink:href="#DejaVuSans-73" x="380.140625"/>
      <use xlink:href="#DejaVuSans-69" x="432.240234"/>
      <use xlink:href="#DejaVuSans-74" x="460.023438"/>
      <use xlink:href="#DejaVuSans-69" x="499.232422"/>
      <use xlink:href="#DejaVuSans-6f" x="527.015625"/>
      <use xlink:href="#DejaVuSans-6e" x="588.197266"/>
     </g>
    </g>
   </g>
  </g>
 </g>
 <defs>
  <clipPath id="pac53f07a7b">
   <rect x="114.528" y="45.248" width="1224.425777" height="611.319333"/>
  </clipPath>
 </defs>
</svg>
